<svg width="30" height="31" viewBox="0 0 30 31" fill="none" xmlns="http://www.w3.org/2000/svg">
<path d="M8.87496 0.916626H21.125C25.7916 0.916626 29.5833 4.70829 29.5833 9.37496V21.625C29.5833 23.8682 28.6922 26.0197 27.1059 27.6059C25.5197 29.1922 23.3682 30.0833 21.125 30.0833H8.87496C4.20829 30.0833 0.416626 26.2916 0.416626 21.625V9.37496C0.416626 7.13167 1.30777 4.98026 2.89401 3.39401C4.48026 1.80777 6.63167 0.916626 8.87496 0.916626ZM8.58329 3.83329C7.19091 3.83329 5.85555 4.38642 4.87098 5.37098C3.88642 6.35555 3.33329 7.69091 3.33329 9.08329V21.9166C3.33329 24.8187 5.68121 27.1666 8.58329 27.1666H21.4166C22.809 27.1666 24.1444 26.6135 25.1289 25.6289C26.1135 24.6444 26.6666 23.309 26.6666 21.9166V9.08329C26.6666 6.18121 24.3187 3.83329 21.4166 3.83329H8.58329ZM22.6562 6.02079C23.1397 6.02079 23.6033 6.21285 23.9452 6.55471C24.2871 6.89658 24.4791 7.36024 24.4791 7.84371C24.4791 8.32718 24.2871 8.79084 23.9452 9.13271C23.6033 9.47457 23.1397 9.66663 22.6562 9.66663C22.1727 9.66663 21.7091 9.47457 21.3672 9.13271C21.0253 8.79084 20.8333 8.32718 20.8333 7.84371C20.8333 7.36024 21.0253 6.89658 21.3672 6.55471C21.7091 6.21285 22.1727 6.02079 22.6562 6.02079ZM15 8.20829C16.9338 8.20829 18.7885 8.97652 20.1559 10.344C21.5234 11.7114 22.2916 13.5661 22.2916 15.5C22.2916 17.4338 21.5234 19.2885 20.1559 20.6559C18.7885 22.0234 16.9338 22.7916 15 22.7916C13.0661 22.7916 11.2114 22.0234 9.84397 20.6559C8.47652 19.2885 7.70829 17.4338 7.70829 15.5C7.70829 13.5661 8.47652 11.7114 9.84397 10.344C11.2114 8.97652 13.0661 8.20829 15 8.20829ZM15 11.125C13.8396 11.125 12.7268 11.5859 11.9064 12.4064C11.0859 13.2268 10.625 14.3396 10.625 15.5C10.625 16.6603 11.0859 17.7731 11.9064 18.5936C12.7268 19.414 13.8396 19.875 15 19.875C16.1603 19.875 17.2731 19.414 18.0936 18.5936C18.914 17.7731 19.375 16.6603 19.375 15.5C19.375 14.3396 18.914 13.2268 18.0936 12.4064C17.2731 11.5859 16.1603 11.125 15 11.125Z" fill="#001220"/>
</svg>
