<svg width="28" height="27" viewBox="0 0 28 27" fill="none" xmlns="http://www.w3.org/2000/svg">
<path d="M24.2083 0.375C24.9819 0.375 25.7237 0.682291 26.2707 1.22927C26.8177 1.77625 27.125 2.51812 27.125 3.29167V23.7083C27.125 24.4819 26.8177 25.2237 26.2707 25.7707C25.7237 26.3177 24.9819 26.625 24.2083 26.625H3.79167C3.01812 26.625 2.27625 26.3177 1.72927 25.7707C1.18229 25.2237 0.875 24.4819 0.875 23.7083V3.29167C0.875 2.51812 1.18229 1.77625 1.72927 1.22927C2.27625 0.682291 3.01812 0.375 3.79167 0.375H24.2083ZM23.4792 22.9792V15.25C23.4792 13.9891 22.9783 12.7799 22.0867 11.8883C21.1951 10.9967 19.9859 10.4958 18.725 10.4958C17.4854 10.4958 16.0417 11.2542 15.3417 12.3917V10.7729H11.2729V22.9792H15.3417V15.7896C15.3417 14.6667 16.2458 13.7479 17.3688 13.7479C17.9102 13.7479 18.4295 13.963 18.8124 14.3459C19.1953 14.7288 19.4104 15.2481 19.4104 15.7896V22.9792H23.4792ZM6.53333 8.48333C7.18311 8.48333 7.80628 8.22521 8.26575 7.76575C8.72521 7.30628 8.98333 6.68311 8.98333 6.03333C8.98333 4.67708 7.88958 3.56875 6.53333 3.56875C5.87969 3.56875 5.25281 3.82841 4.79061 4.29061C4.32841 4.75281 4.06875 5.37969 4.06875 6.03333C4.06875 7.38958 5.17708 8.48333 6.53333 8.48333ZM8.56042 22.9792V10.7729H4.52083V22.9792H8.56042Z" fill="#001220"/>
</svg>
